<?xml version="1.0" encoding="UTF-8" standalone="no"?>
<svg id="svg" width="1024" height="1024" viewBox="-512 -512 1024 1024" style="position: absolute; top: 0; left: 0" version="1.1" sodipodi:docname="aerospoke.svg" inkscape:version="1.2.2 (732a01da63, 2022-12-09, custom)" xmlns:inkscape="http://www.inkscape.org/namespaces/inkscape" xmlns:sodipodi="http://sodipodi.sourceforge.net/DTD/sodipodi-0.dtd" xmlns="http://www.w3.org/2000/svg" xmlns:svg="http://www.w3.org/2000/svg">
  <defs id="defs20808" />
  <sodipodi:namedview id="namedview20806" pagecolor="#ffffff" bordercolor="#666666" borderopacity="1.0" inkscape:showpageshadow="2" inkscape:pageopacity="0.0" inkscape:pagecheckerboard="0" inkscape:deskcolor="#d1d1d1" showgrid="false" inkscape:zoom="1.0029297" inkscape:cx="512.49854" inkscape:cy="513.99416" inkscape:window-width="1504" inkscape:window-height="1282" inkscape:window-x="26" inkscape:window-y="23" inkscape:window-maximized="0" inkscape:current-layer="svg" />
  <circle cx="0" cy="0" r="500" class="" style="fill:#ade0e4;fill-opacity:1" id="circle20791" />
  <path id="circle20793" style="fill:#424143;fill-opacity:1" class="rim stroke" d="M 0 -470 A 470 470 0 0 0 -470 0 A 470 470 0 0 0 0 470 A 470 470 0 0 0 470 0 A 470 470 0 0 0 0 -470 z M 0.5 -390 A 390 390 0 0 1 31.222656 -388.74805 A 45 45 0 0 1 70.417969 -329.98633 L -7.7675781 -89.357422 A 25 25 0 0 1 -46.238281 -76.857422 L -250.93164 -225.57422 A 45 45 0 0 1 -253.75977 -296.15039 A 390 390 0 0 1 -30.224609 -388.82617 A 390 390 0 0 1 0.5 -390 z M 184.14648 -339.23828 A 45 45 0 0 1 203.24023 -332.85547 A 390 390 0 0 1 379.36914 -90.435547 A 45 45 0 0 1 335.5957 -35 L 82.582031 -35 A 25 25 0 0 1 58.806641 -67.724609 L 136.99219 -308.35547 A 45 45 0 0 1 184.14648 -339.23828 z M -310.59766 -176.83398 A 45 45 0 0 1 -292.07617 -168.94336 L -87.382812 -20.224609 A 25 25 0 0 1 -87.382812 20.224609 L -292.07617 168.94336 A 45 45 0 0 1 -360.07227 149.82422 A 390 390 0 0 1 -360.07227 -149.82422 A 45 45 0 0 1 -310.59766 -176.83398 z M 82.582031 35 L 335.5957 35 A 45 45 0 0 1 379.36914 90.435547 A 390 390 0 0 1 203.24023 332.85547 A 45 45 0 0 1 136.99219 308.35547 L 58.806641 67.724609 A 25 25 0 0 1 82.582031 35 z M -31.542969 72.082031 A 25 25 0 0 1 -7.7675781 89.357422 L 70.417969 329.98633 A 45 45 0 0 1 31.222656 388.74805 A 390 390 0 0 1 -253.75977 296.15039 A 45 45 0 0 1 -250.93164 225.57422 L -46.238281 76.857422 A 25 25 0 0 1 -31.542969 72.082031 z " />
</svg>
