<svg id="svg" width="1024" height="1024" viewBox="-512 -512 1024 1024" style="position: absolute; top: 0; left: 0"><circle cx="0" cy="0" r="500" class="" style="fill: rgba(127, 127, 255, 0.8)"></circle><circle cx="0" cy="0" r="470" class="rim stroke"></circle><path class="path stroke" d="M -5.7735026918962475 110.00000000000003 A 120 120 0 0 1 98.14954576223641 50 L 344.6737587922817 50 A 35 35 0 0 1 378.6556786732109 93.38028169014085 A 390 390 0 0 1 -108.4581431803965 374.61557786330854 A 35 35 0 0 1 -129.03560920691882 323.496231131986 Z" transform="rotate(15)"></path><path class="path stroke" d="M -5.7735026918962475 110.00000000000003 A 120 120 0 0 1 98.14954576223641 50 L 344.6737587922817 50 A 35 35 0 0 1 378.6556786732109 93.38028169014085 A 390 390 0 0 1 -108.4581431803965 374.61557786330854 A 35 35 0 0 1 -129.03560920691882 323.496231131986 Z" transform="rotate(135)"></path><path class="path stroke" d="M -5.7735026918962475 110.00000000000003 A 120 120 0 0 1 98.14954576223641 50 L 344.6737587922817 50 A 35 35 0 0 1 378.6556786732109 93.38028169014085 A 390 390 0 0 1 -108.4581431803965 374.61557786330854 A 35 35 0 0 1 -129.03560920691882 323.496231131986 Z" transform="rotate(254.99999999999997)"></path></svg>